<?xml version="1.0" encoding="UTF-8" standalone="no"?>
<!-- Created with Inkscape (http://www.inkscape.org/) -->

<svg
   xmlns:dc="http://purl.org/dc/elements/1.1/"
   xmlns:cc="http://creativecommons.org/ns#"
   xmlns:rdf="http://www.w3.org/1999/02/22-rdf-syntax-ns#"
   xmlns:svg="http://www.w3.org/2000/svg"
   xmlns="http://www.w3.org/2000/svg"
   xmlns:sodipodi="http://sodipodi.sourceforge.net/DTD/sodipodi-0.dtd"
   xmlns:inkscape="http://www.inkscape.org/namespaces/inkscape"
   width="256mm"
   height="256mm"
   viewBox="0 0 256 256"
   version="1.1"
   id="svg8"
   inkscape:version="0.92.2 5c3e80d, 2017-08-06"
   sodipodi:docname="Laxness.svg">
  <defs
     id="defs2" />
  <sodipodi:namedview
     id="base"
     pagecolor="#ffffff"
     bordercolor="#666666"
     borderopacity="1.0"
     inkscape:pageopacity="0"
     inkscape:pageshadow="2"
     inkscape:zoom="0.24748737"
     inkscape:cx="517.2839"
     inkscape:cy="582.85566"
     inkscape:document-units="mm"
     inkscape:current-layer="layer1"
     showgrid="false"
     showguides="false"
     inkscape:window-width="1280"
     inkscape:window-height="778"
     inkscape:window-x="0"
     inkscape:window-y="0"
     inkscape:window-maximized="1" />
  <metadata
     id="metadata5">
    <rdf:RDF>
      <cc:Work
         rdf:about="">
        <dc:format>image/svg+xml</dc:format>
        <dc:type
           rdf:resource="http://purl.org/dc/dcmitype/StillImage" />
        <dc:title></dc:title>
      </cc:Work>
    </rdf:RDF>
  </metadata>
  <g
     inkscape:label="Layer 1"
     inkscape:groupmode="layer"
     id="layer1"
     transform="translate(0,-41)">
    <path
       style="fill:#000000;stroke-width:0.34342143"
       d="m 91.194304,295.18269 c -0.09614,-0.28072 0.05693,-1.27208 0.340144,-2.20303 l 0.515038,-1.69263 -1.918871,2.04953 c -1.903756,2.03338 -3.109931,2.562 -3.467185,1.51951 -0.09989,-0.2915 0.290534,-1.93087 0.867622,-3.64303 0.577087,-1.71215 0.954897,-3.21865 0.839601,-3.34776 -0.115296,-0.12912 -0.57417,0.14872 -1.019702,0.6174 -0.651264,0.68512 -0.810061,0.73651 -0.810061,0.26221 0,-0.72518 1.791165,-2.29847 3.00195,-2.6368 1.196764,-0.33444 1.168601,0.14636 -0.249405,4.25784 -0.628024,1.82095 -1.075693,3.38492 -0.994821,3.47547 0.352007,0.39417 3.573192,-3.52029 4.6174,-5.61115 0.629766,-1.26103 1.269886,-2.29276 1.422483,-2.29276 0.709554,0 0.595109,0.99295 -0.487361,4.2287 -0.64318,1.9226 -1.109044,3.56324 -1.035243,3.64587 0.07385,0.0827 0.590642,-0.27984 1.148543,-0.8055 0.747473,-0.70429 1.014353,-0.81079 1.014353,-0.4048 0,0.63484 -2.051237,2.63497 -2.981709,2.90745 -0.365055,0.10686 -0.701085,-0.0298 -0.802776,-0.32652 z m 57.224246,0.14268 c -0.35439,-0.22208 -0.54066,-0.80762 -0.54066,-1.69961 0,-3.19532 4.0245,-7.99563 6.34923,-7.57319 0.98381,0.17877 1.00514,0.14853 1.83699,-2.60181 0.50937,-1.6842 0.72517,-2.91898 0.54664,-3.12794 -0.16224,-0.18988 -0.29496,-0.46866 -0.29496,-0.6195 0,-0.31309 2.22295,-0.84635 2.45322,-0.5885 0.0832,0.0932 -0.37951,1.78898 -1.02817,3.76855 -1.68002,5.12708 -3.33553,11.04909 -3.08882,11.04909 0.11554,0 0.60374,-0.40885 1.08498,-0.90853 1.005,-1.04351 1.22784,-1.11428 1.22784,-0.38986 0,0.75352 -2.29258,2.752 -3.157,2.752 -0.57524,0 -0.73741,-0.20503 -0.73741,-0.9324 0,-0.51282 0.16358,-1.28962 0.36352,-1.72618 0.21763,-0.47527 -0.21221,-0.17219 -1.07122,0.7553 -1.55455,1.67849 -3.07361,2.38813 -3.94418,1.84258 z m 3.68413,-2.88873 c 1.82569,-2.13225 2.98425,-4.91179 2.25707,-5.41505 -0.62049,-0.42941 -1.3868,0.11606 -2.68854,1.91358 -1.13006,1.56049 -2.49519,4.2866 -2.49519,4.9828 0,0.9638 1.47025,0.21963 2.92666,-1.48133 z m -83.411171,2.57704 c 0,-0.20482 0.350915,-0.5218 0.779814,-0.7044 0.428889,-0.1826 0.88811,-0.52823 1.020484,-0.76806 0.200301,-0.36292 3.392247,-11.53559 3.392247,-11.87379 0,-0.0599 -0.373889,-0.26801 -0.830853,-0.46256 -1.395365,-0.59406 -0.59433,-1.01019 1.966242,-1.02144 2.565933,-0.011 3.018568,0.31326 1.542028,1.10558 -0.653341,0.3506 -1.082953,1.06185 -1.603382,2.65454 -0.390999,1.1966 -0.719589,2.38005 -0.730211,2.6299 -0.01423,0.33462 0.837451,0.45426 3.234092,0.45426 3.669037,0 3.297783,0.30754 4.330816,-3.58772 0.501544,-1.89117 0.501291,-1.89321 -0.28558,-2.29467 -1.273665,-0.64983 -0.623222,-0.99017 1.810473,-0.94728 2.370441,0.0417 3.211501,0.45875 1.752416,0.86883 -0.499883,0.14049 -0.983648,0.62993 -1.177911,1.19172 -0.589305,1.70429 -3.186913,11.1165 -3.189953,11.55851 -10e-4,0.23638 0.289127,0.53359 0.646118,0.66046 0.35698,0.1269 0.649075,0.38319 0.649075,0.5696 0,0.39123 -4.644706,0.46785 -4.989022,0.0823 -0.126044,-0.14115 0.244986,-0.50909 0.824511,-0.81767 1.044107,-0.55594 1.813501,-2.21767 2.391713,-5.16556 l 0.206815,-1.05442 -3.324544,0.10387 -3.324552,0.10398 -0.56142,1.85181 c -1.088792,3.59124 -1.108626,4.08866 -0.1736,4.35145 1.515399,0.4259 0.51042,0.88318 -1.940962,0.88318 -1.432431,0 -2.414854,-0.1515 -2.414854,-0.3724 z m 28.766198,-0.17271 c -0.180192,-0.52582 0.04083,-1.63534 0.325759,-1.63534 0.07638,0 0.507693,0.27054 0.958351,0.6012 0.761596,0.55879 0.857167,0.55888 1.355103,0.001 0.49794,-0.55757 0.47207,-0.74067 -0.366948,-2.59613 -1.033256,-2.28503 -0.951057,-2.99824 0.503468,-4.36873 1.0965,-1.03317 2.11162,-1.07067 2.656,-0.0981 0.47024,0.84009 -0.23571,1.75404 -0.8358,1.08206 -0.47892,-0.53628 -1.44622,-0.56881 -1.72809,-0.0581 -0.11468,0.20789 0.16872,1.1861 0.62992,2.17377 1.07507,2.30232 1.05564,3.07556 -0.11015,4.38095 -1.067288,1.19514 -3.051531,1.49805 -3.387663,0.51715 z m 14.189693,0 c -0.10279,-0.29981 -0.0966,-0.80813 0.0135,-1.12959 0.18283,-0.53351 0.27304,-0.5311 1.03455,0.0277 1.73968,1.27642 2.24938,-0.10221 1.05533,-2.85431 -0.61917,-1.42709 -0.6514,-1.74521 -0.27884,-2.75242 0.41235,-1.11471 1.75892,-2.19478 2.73632,-2.19478 0.63805,0 1.19458,1.17253 0.85155,1.79408 -0.21807,0.39507 -0.39794,0.37996 -0.98822,-0.083 -0.80302,-0.62983 -1.62074,-0.45776 -1.62074,0.34104 0,0.28639 0.29207,1.1618 0.64907,1.94538 0.88434,1.9411 0.83524,3.45864 -0.14752,4.55912 -0.92689,1.03793 -2.99385,1.25486 -3.305,0.34689 z m 7.67147,0.10106 c 0,-0.24422 0.91183,-3.52149 2.02627,-7.28283 1.70524,-5.75519 1.95099,-6.89092 1.55096,-7.16777 -0.26146,-0.18094 -0.40657,-0.39535 -0.3225,-0.47649 0.36781,-0.35489 2.38529,-0.96571 2.55649,-0.77398 0.1039,0.11633 -0.37694,2.03859 -1.06854,4.27167 -0.69158,2.23309 -1.33336,4.30547 -1.42616,4.60528 -0.0929,0.29981 0.34671,7.3e-4 0.97667,-0.66465 1.52151,-1.60702 3.56813,-1.99535 4.14583,-0.78665 0.51434,1.07619 -0.32199,2.37419 -2.27483,3.53057 -0.77615,0.45961 -1.46458,0.89544 -1.52986,0.96852 -0.0652,0.0731 0.1337,0.72551 0.44214,1.44981 0.55286,1.29819 1.24156,1.71526 1.48454,0.899 0.0685,-0.22985 0.31012,-0.34859 0.53713,-0.26386 0.67128,0.25057 -0.85299,2.13541 -1.72692,2.13541 -0.58794,0 -0.89703,-0.38844 -1.44585,-1.81703 -0.38395,-0.99938 -0.8951,-1.81704 -1.1359,-1.81704 -0.24079,0 -0.75193,0.81766 -1.13587,1.81704 -0.63068,1.64168 -1.6536,2.49103 -1.6536,1.373 z m 4.26298,-4.74082 c 1.72886,-1.0377 2.55224,-1.84052 2.55224,-2.48851 0,-1.09332 -0.87575,-0.80098 -2.44126,0.81491 -1.88996,1.95077 -1.94456,2.77415 -0.111,1.6736 z m 6.33847,4.94258 c -0.8075,-0.90423 0.72457,-4.67169 2.84941,-7.00685 1.19786,-1.31644 1.69985,-1.61888 2.78479,-1.67778 0.77231,-0.0419 1.48529,-0.31407 1.71202,-0.65341 0.2377,-0.3558 0.54998,-0.46729 0.80447,-0.2872 0.3211,0.22722 0.10856,1.18237 -0.93191,4.18881 -0.74131,2.14196 -1.26477,3.98751 -1.16323,4.10121 0.10156,0.11373 0.5797,-0.14127 1.06258,-0.56661 0.48288,-0.42534 0.93213,-0.71269 0.99833,-0.63856 0.53219,0.59594 -1.88757,2.78266 -3.07921,2.78266 -0.79065,0 -0.88389,-0.5303 -0.3633,-2.06594 l 0.34681,-1.02303 -0.91475,0.94364 c -1.86903,1.92805 -3.43538,2.65403 -4.10601,1.90306 z m 4.09337,-2.98762 c 1.42118,-1.76153 2.2895,-3.56078 2.05237,-4.25277 -0.71746,-2.09359 -4.41489,2.54704 -4.41489,5.54109 0,0.73824 0.0942,0.82044 0.59594,0.51979 0.32775,-0.19642 1.12272,-1.01007 1.76658,-1.80811 z m 7.04897,2.78586 c 0,-0.24422 0.91276,-3.5404 2.02836,-7.32486 1.4537,-4.93152 1.91341,-6.92481 1.62266,-7.0361 -0.22312,-0.0855 -0.40567,-0.29253 -0.40567,-0.46024 0,-0.40953 2.25708,-1.22568 2.53352,-0.91611 0.12009,0.13446 -0.77663,3.5185 -1.99262,7.52013 -1.21602,4.00163 -2.12558,7.37126 -2.02127,7.48807 0.10427,0.11674 0.64692,-0.31132 1.20577,-0.95139 1.11983,-1.28261 1.58179,-1.25119 0.95281,0.0648 -0.75188,1.57319 -3.92356,2.87926 -3.92356,1.61568 z m 18.29129,-0.10106 c -0.10278,-0.29981 -0.10079,-0.79611 0.005,-1.10289 0.17004,-0.4962 0.28107,-0.49179 1.00582,0.0399 0.91092,0.66836 1.79328,0.47459 1.79328,-0.39377 0,-0.31405 -0.29207,-1.21209 -0.64905,-1.99567 -0.94874,-2.08244 -0.84806,-3.38198 0.34942,-4.51031 0.54917,-0.51743 1.26149,-0.9408 1.58293,-0.9408 0.76312,0 1.43759,0.92923 1.19286,1.64341 -0.17223,0.50257 -0.29264,0.50461 -1.13104,0.0191 -1.54578,-0.8951 -1.79522,0.18786 -0.65082,2.82554 0.7922,1.82591 0.66328,3.07802 -0.43488,4.22366 -0.84452,0.88103 -2.78503,1.00253 -3.06286,0.19177 z m 7.67146,0.15095 c 0,-0.21679 0.57454,-1.93388 1.27675,-3.81579 0.70221,-1.88189 1.17283,-3.42162 1.04581,-3.42162 -0.12701,0 -0.55551,0.25459 -0.95221,0.56573 -1.07194,0.84075 -0.87326,0.005 0.25057,-1.05342 1.13853,-1.07275 2.227,-1.52834 2.61106,-1.09289 0.14971,0.16977 -0.30209,1.86223 -1.004,3.76103 -0.70192,1.89881 -1.23724,3.58677 -1.18959,3.75102 0.0476,0.16424 0.47125,-0.0401 0.94138,-0.45426 0.94977,-0.83659 1.23918,-0.92808 1.23918,-0.39177 0,0.19862 -0.60607,0.85276 -1.34683,1.45362 -1.33517,1.08304 -2.87212,1.45675 -2.87212,0.69835 z m 7.60506,-0.24181 c 0.10144,-0.34977 0.67694,-2.10776 1.27881,-3.90663 0.60187,-1.79887 1.04438,-3.3337 0.98336,-3.41074 -0.061,-0.077 -0.49327,0.14044 -0.96057,0.48329 -1.19062,0.87358 -1.46962,0.32271 -0.37222,-0.73495 0.9438,-0.90964 2.38402,-1.4943 2.7291,-1.10788 0.1695,0.18981 -0.2365,2.01067 -0.74631,3.34702 -0.0827,0.21659 0.66337,-0.4886 1.65774,-1.56711 1.39913,-1.51749 1.99919,-1.93522 2.65372,-1.8474 1.52803,0.20502 1.58272,0.96911 0.32119,4.48731 -0.63817,1.77975 -1.11736,3.28399 -1.06489,3.34277 0.0525,0.0588 0.47262,-0.2254 0.93364,-0.63146 1.29819,-1.14348 1.35093,-0.21442 0.0599,1.05492 -1.07824,1.06009 -2.51275,1.48042 -2.8663,0.83982 -0.0871,-0.15786 0.4154,-1.87715 1.11671,-3.82065 0.70133,-1.9435 1.27513,-3.69498 1.27513,-3.89218 0,-1.57446 -3.03026,1.88121 -4.74983,5.41664 -0.84157,1.73028 -1.44806,2.57915 -1.84387,2.58077 -0.41603,0.001 -0.53544,-0.18493 -0.40528,-0.63354 z m 11.10975,0.3937 c -0.36462,-0.40829 -0.24028,-1.50503 0.18932,-1.66974 0.22312,-0.0856 0.74302,0.0895 1.15533,0.3892 0.66753,0.48505 0.80403,0.48387 1.24579,-0.011 0.44515,-0.49847 0.4098,-0.75991 -0.344,-2.54415 -0.46207,-1.09374 -0.84012,-2.17157 -0.84012,-2.39517 0,-0.2236 0.45325,-0.9846 1.00722,-1.69111 1.15929,-1.47853 2.34588,-1.69035 2.90584,-0.51875 0.53818,1.12608 -0.0693,1.63235 -1.07402,0.89515 -0.6966,-0.5111 -0.85084,-0.51885 -1.19105,-0.0598 -0.31206,0.42103 -0.21673,0.93939 0.47299,2.57197 0.76388,1.80814 0.8174,2.17016 0.46256,3.12943 -0.22069,0.59661 -0.7057,1.32354 -1.07782,1.61539 -0.69191,0.5427 -2.52298,0.72401 -2.91204,0.28836 z M 92.70705,283.03022 c 0.968462,-2.14833 1.773497,-2.74678 2.163615,-1.6084 0.127554,0.37221 -0.29644,1.13396 -1.213631,2.18045 -0.775323,0.88462 -1.527395,1.60839 -1.6713,1.60839 -0.143894,0 0.180699,-0.9812 0.721316,-2.18044 z m 42.89449,1.90788 c 1.02377,-2.53581 1.99052,-4.08833 2.54579,-4.08833 1.04475,0 0.75765,1.11429 -0.7221,2.80266 -1.21927,1.39113 -2.12369,2.02875 -1.82369,1.28567 z m 34.7963,-2.4246 c -0.26329,-0.76836 0.48522,-2.08836 1.10809,-1.95404 0.29826,0.0643 0.59256,0.40912 0.65397,0.7662 0.22172,1.2892 -1.36157,2.35652 -1.76206,1.18784 z M 9.626279,264.07393 c -3.4016802,-1.9558 -5.1430521,-5.56257 -4.7477727,-9.83364 0.5210908,-5.6305 4.0340836,-9.01068 9.3602027,-9.00629 2.271098,0.001 5.370228,1.01968 6.099015,2.003 0.310511,0.41896 0.148516,0.8252 -0.832777,2.08838 l -1.218283,1.56824 -1.464385,-0.83017 c -3.662537,-2.0763 -7.171321,0.24795 -7.438705,4.92748 -0.2100157,3.67572 1.746266,6.23984 4.753034,6.22986 2.69183,-0.009 2.953951,-0.20575 2.953951,-2.21788 v -1.77465 H 15.467896 13.84522 v -1.81704 -1.81703 h 3.52944 3.529453 l 0.02613,5.05467 0.02613,5.0547 -1.364908,0.62778 c -0.850478,0.39117 -2.588097,0.68953 -4.61026,0.79161 -3.17178,0.16011 -3.293151,0.13626 -5.3548086,-1.04902 z m 34.679249,0.36525 c -0.649981,-0.42205 -1.489212,-1.37989 -1.864964,-2.12852 l -0.683184,-1.36117 0.89136,-0.37579 c 2.609562,-1.10019 2.815984,-1.1127 3.425745,-0.20749 0.726985,1.07923 1.659547,1.10012 2.315231,0.0519 0.414831,-0.6632 0.505206,-2.06083 0.505206,-7.81327 v -7.00558 h 2.132556 2.132566 l -0.104259,7.7224 c -0.11628,8.61983 -0.29416,9.40106 -2.522634,11.08271 -1.478196,1.11548 -4.537069,1.13259 -6.227661,0.0348 z m 20.329305,0.11551 c -1.577758,-0.83763 -2.563222,-1.98986 -3.229847,-3.77646 -0.39382,-1.05542 -0.5023,-2.84365 -0.5023,-8.27992 v -6.93375 l 1.971873,0.10823 1.971872,0.10823 0.05643,6.42429 c 0.05189,5.90564 0.111496,6.50709 0.738686,7.44987 1.266757,1.90429 3.317413,2.03101 4.862814,0.3005 0.771842,-0.8643 0.783384,-0.9766 0.783384,-7.61681 v -6.73955 h 2.109471 2.109483 v 7.0293 c 0,6.65718 -0.03999,7.11407 -0.755124,8.63093 -0.41531,0.8809 -1.377026,2.09224 -2.137142,2.69187 -1.222048,0.96402 -1.688752,1.10193 -4.031765,1.19137 -2.066049,0.0788 -2.935687,-0.0506 -3.947878,-0.58802 z m 82.841947,0.30672 c -1.13371,-0.38226 -3.16877,-1.78415 -3.16877,-2.18287 0,-0.16772 0.56396,-0.94282 1.25324,-1.72242 1.23557,-1.39745 1.26348,-1.40817 1.97873,-0.75961 1.81784,1.6483 4.38699,1.67222 5.14755,0.0479 0.62172,-1.3278 -0.10365,-2.16653 -2.92119,-3.37772 -3.05018,-1.31121 -3.7375,-1.86728 -4.36725,-3.53337 -0.62105,-1.64307 -0.55054,-3.16392 0.22567,-4.86767 1.32978,-2.91881 6.05235,-4.16894 9.3742,-2.48149 2.46181,1.25057 2.49376,1.35431 0.95686,3.10787 l -1.36507,1.55751 -0.7754,-0.68298 c -1.21223,-1.06777 -2.52636,-1.24739 -3.65653,-0.49981 -1.03504,0.68464 -1.31156,1.92456 -0.57713,2.58773 0.22311,0.20147 1.40605,0.76601 2.62875,1.25454 3.95983,1.58219 5.20103,3.34941 4.74026,6.74922 -0.44489,3.28265 -2.84286,5.18709 -6.46417,5.13378 -1.16701,-0.0172 -2.5214,-0.16595 -3.00975,-0.33061 z m -118.773774,-9.63162 0.0915,-9.63055 h 1.936867 1.936853 l 0.0406,7.08644 c 0.02233,3.89756 0.05888,7.29089 0.08108,7.54073 0.02894,0.32338 0.998932,0.48409 3.367041,0.55782 l 3.326477,0.10356 v 1.98603 1.98603 l -5.435948,2.4e-4 -5.435948,2.5e-4 z m 54.592548,-2.3e-4 v -9.63032 h 5.679346 5.679356 v 1.99874 1.99874 h -3.569879 -3.569879 v 1.99874 1.99875 h 3.262295 3.262305 l -0.09817,1.90789 -0.09816,1.9079 -3.164201,0.10397 -3.164221,0.10398 v 3.62091 3.62092 h -2.109477 -2.109467 z m 18.241536,0.0908 0.0947,-9.53945 4.54347,3.2e-4 c 3.96379,2.8e-4 4.70677,0.0962 5.82322,0.75176 1.73205,1.017 2.5169,2.30639 2.67798,4.39941 0.17267,2.24385 -0.61818,4.02529 -2.23392,5.03195 l -1.19704,0.74581 1.37394,2.53035 c 0.75566,1.39168 1.69538,3.1027 2.08828,3.80227 0.39288,0.69955 0.7149,1.39458 0.71556,1.54449 6.5e-4,0.1499 -1.05757,0.27091 -2.35166,0.26889 l -2.35287,-0.004 -1.8109,-3.72128 c -1.33298,-2.73918 -1.99675,-3.75193 -2.51513,-3.83739 -0.68476,-0.11291 -0.70425,-0.009 -0.70425,3.72492 v 3.84107 h -2.12299 -2.123 z m 8.36525,-2.26621 c 0.35975,-0.36457 0.6541,-1.03465 0.6541,-1.48909 0,-1.41366 -0.82965,-1.96837 -2.94399,-1.96837 h -1.92402 v 2.22545 2.22544 l 1.77991,-0.16529 c 1.09627,-0.10179 2.03114,-0.41986 2.434,-0.82814 z m 11.0392,11.62116 c 0,-0.14698 4.54827,-12.30433 6.7012,-17.91207 0.4574,-1.19139 0.47127,-1.19749 2.47762,-1.09022 l 2.01762,0.10796 3.46559,9.26689 c 1.90606,5.09679 3.47599,9.39672 3.48873,9.55539 0.0128,0.15864 -1.01719,0.24041 -2.28875,0.1817 l -2.3119,-0.10673 -0.5692,-1.63532 -0.56919,-1.63535 -3.37951,-0.10231 -3.3795,-0.10232 -0.5872,1.82857 -0.58721,1.82856 h -2.23914 c -1.23154,0 -2.23916,-0.0831 -2.23916,-0.18451 z m 11.03417,-7.60797 c 0,-0.22447 -1.70384,-5.43767 -1.83788,-5.62333 -0.0601,-0.0832 -0.18892,-0.0624 -0.28618,0.0466 -0.21905,0.24529 -1.77035,5.0013 -1.77035,5.42757 0,0.17053 0.87624,0.31006 1.94721,0.31006 1.07096,0 1.9472,-0.0724 1.9472,-0.16092 z m 35.86104,0.25196 v -7.54091 l -2.35287,-0.10672 -2.35288,-0.10672 v -1.98282 -1.98282 h 6.81523 6.81521 v 1.98282 1.98282 l -2.35287,0.10672 -2.35287,0.10672 -0.0877,7.54071 -0.0877,7.54071 -2.02175,2e-4 -2.02175,1.8e-4 z m 15.09084,-2.08979 v -9.6303 h 5.84162 5.84162 v 1.99874 1.99874 h -3.73215 -3.73214 v 1.81703 1.81705 h 3.56988 3.56988 v 1.81703 1.81704 h -3.56988 -3.56988 v 1.99875 1.99875 h 3.89441 3.89441 v 1.99874 1.99873 h -6.00389 -6.00388 z m 19.47206,0 v -9.6303 h 2.10947 2.10948 v 9.6303 9.6303 h -2.10948 -2.10947 z m 12.00776,0 v -9.6303 h 2.39174 2.39174 l 3.36874,6.16316 3.36875,6.16318 0.0888,-6.16318 0.0888,-6.16316 h 1.93954 1.93955 v 9.6303 9.6303 l -2.35288,-0.011 -2.35287,-0.011 -1.10978,-2.0793 c -2.3172,-4.34158 -5.32632,-9.72511 -5.63101,-10.07425 -0.2066,-0.23677 -0.2553,1.82124 -0.13973,5.90538 l 0.17739,6.26877 h -2.08439 -2.08438 v -9.6303 z m 23.691,0 v -9.6303 l 2.35287,0.004 2.35288,0.004 3.37969,6.17395 c 1.85883,3.39565 3.43845,6.17392 3.51027,6.17392 0.0717,0 0.0979,-2.73919 0.0578,-6.08707 l -0.0727,-6.08708 1.99838,-0.10823 1.99836,-0.10824 v 9.64765 9.64764 h -2.40445 -2.40448 l -3.35602,-6.13424 -3.356,-6.13426 -0.0888,6.13426 -0.0889,6.13424 h -1.93954 -1.93955 z M 66.095231,243.92172 c 0,-0.1232 0.523581,-1.02257 1.163516,-1.99875 l 1.163514,-1.77487 h 1.989609 1.989609 l -1.762764,1.99875 c -1.591471,1.80451 -1.89786,1.99872 -3.153124,1.99872 -0.76469,0 -1.39036,-0.10065 -1.39036,-0.22385 z m 97.441439,-29.30081 c -0.40161,-0.21221 -0.73021,-0.53014 -0.73021,-0.7065 0,-0.57348 1.07517,-2.25001 2.81482,-4.38924 1.75597,-2.15929 3.07481,-4.9222 5.17615,-10.84389 1.42157,-4.00608 2.1494,-5.39162 4.72246,-8.98985 3.3354,-4.66431 3.97281,-6.75955 2.84797,-9.36153 l -0.71888,-1.66287 0.64919,-0.72696 0.64921,-0.72697 0.65513,1.0321 c 0.98324,1.54896 1.34729,3.43869 1.02945,5.34381 -0.36927,2.21339 -1.12366,3.77399 -3.71281,7.68073 -2.52273,3.80649 -3.16855,5.14978 -5.02693,10.4558 -1.48491,4.23968 -2.97941,7.07865 -5.22076,9.91747 -0.78705,0.99684 -1.65005,2.16149 -1.91779,2.58809 -0.40432,0.64424 -0.61051,0.71027 -1.217,0.38981 z m -2.50297,-18.29366 c -0.48064,-0.82141 -0.48959,-0.9917 -0.0716,-1.36278 0.26268,-0.23322 1.31335,-1.89586 2.33482,-3.69473 2.69019,-4.73755 4.98877,-7.74723 8.62503,-11.29339 1.76587,-1.7221 3.95485,-4.17833 4.8644,-5.45831 1.70714,-2.40236 2.20711,-2.71155 2.89152,-1.78812 0.63018,0.85028 -0.3348,2.21119 -6.56103,9.25304 -4.12639,4.66693 -6.02782,7.10879 -7.08299,9.09614 -1.5997,3.01296 -3.73953,6.18686 -4.17113,6.18686 -0.15382,0 -0.52683,-0.4224 -0.82894,-0.93871 z m -39.84854,-2.96792 c -1.62076,-1.90244 -1.87013,-4.49065 -0.68293,-7.08813 0.43311,-0.94764 0.49786,-0.97148 1.21305,-0.44674 0.734,0.53854 0.74197,0.60043 0.2797,2.17281 -0.45996,1.56445 -0.44693,1.67368 0.39023,3.27328 1.38277,2.64213 0.53239,4.12228 -1.20005,2.08878 z m 23.91918,-3.43803 c -0.19269,-0.9824 -0.10708,-1.25515 0.54192,-1.72619 0.42392,-0.3077 2.4671,-2.47128 4.54041,-4.80797 3.70857,-4.1797 3.84115,-4.28711 8.18652,-6.63219 2.4293,-1.31101 4.50182,-2.38367 4.60562,-2.38367 0.10377,0 2.21178,-1.53828 4.68441,-3.41841 6.18309,-4.70142 9.61707,-6.57531 12.04955,-6.57531 1.52651,0 2.01617,0.15967 2.70187,0.88102 0.46063,0.48456 0.83749,1.08679 0.83749,1.33829 0,0.74708 -1.13135,0.92364 -2.14144,0.33416 -1.93672,-1.13024 -5.26939,0.40185 -11.82064,5.43418 -2.49252,1.91464 -5.91262,4.19877 -7.60023,5.07587 -4.73657,2.46171 -7.17294,4.41814 -10.3825,8.33726 -2.42756,2.96421 -4.98301,5.3097 -5.78503,5.3097 -0.10401,0 -0.29208,-0.52504 -0.41795,-1.16674 z m -22.34374,-7.98426 c -0.0687,-0.26362 -0.27995,-1.70581 -0.46936,-3.20487 -0.18942,-1.49905 -0.93261,-5.01927 -1.65154,-7.82269 -1.75008,-6.82435 -2.08491,-9.71863 -1.66033,-14.35172 0.18595,-2.02907 0.55022,-4.71346 0.80949,-5.96534 1.09939,-5.30826 1.80174,-11.18275 1.80174,-15.06963 0,-4.3114 0.5062,-10.47027 0.97373,-11.84726 0.22415,-0.66018 0.1121,-1.00058 -0.55459,-1.68539 -0.4595,-0.47195 -1.45593,-1.92108 -2.21426,-3.22025 -1.87495,-3.21218 -2.49364,-3.76607 -4.45701,-3.99024 -1.47047,-0.16792 -1.68126,-0.30028 -1.89222,-1.18834 l -0.23741,-0.99936 h 1.78896 c 2.7138,0 3.74783,0.74472 5.99778,4.31977 1.08346,1.72154 2.0837,3.26865 2.22278,3.43801 0.13905,0.16936 0.74244,-0.28899 1.34089,-1.01858 1.10461,-1.34669 3.07419,-2.18604 3.85754,-1.6439 0.25118,0.17381 0.32193,0.63248 0.18905,1.22532 -0.1602,0.71479 -0.41802,0.94754 -1.04959,0.94754 -0.5144,0 -1.1929,0.42637 -1.75973,1.10584 -1.30839,1.56841 -1.86577,5.02074 -2.05106,12.70364 -0.12903,5.3502 -0.33746,7.41232 -1.31319,12.99156 -2.17397,12.43109 -2.16507,15.01701 0.082,23.78384 1.17024,4.56574 2.2895,11.00913 1.96858,11.33279 -0.47216,0.47621 -1.61208,0.58164 -1.72218,0.15926 z m 17.38926,-1.35454 c -0.71546,-0.20555 -0.75551,-0.39397 -0.85675,-4.03109 -0.11419,-4.10403 -1.00833,-8.63548 -3.87191,-19.62371 -3.51252,-13.47831 -4.20462,-16.96814 -4.18013,-21.07765 0.0125,-2.09869 0.25595,-6.24905 0.54097,-9.22302 0.28502,-2.974 0.5182,-5.54966 0.5182,-5.72369 0,-0.17403 0.43813,-0.31643 0.9736,-0.31643 1.16655,0 1.15154,-0.22411 0.48682,7.26817 -0.78407,8.83713 -0.68855,10.59812 0.98725,18.20357 0.81074,3.67942 2.14496,9.22464 2.96496,12.32268 2.75001,10.38995 3.34636,13.37603 3.56359,17.84378 0.11543,2.37431 0.078,4.29398 -0.0855,4.3945 -0.15979,0.0982 -0.62826,0.0814 -1.04107,-0.0371 z m -27.65257,-10.40076 c -2.50062,-4.06986 -5.88795,-15.80167 -4.78812,-16.58329 1.17916,-0.838 1.45406,-0.37064 2.47978,4.21585 1.29609,5.79534 2.07097,8.08269 3.60247,10.63391 1.02114,1.70103 1.17357,2.17738 0.87059,2.72064 -0.57052,1.02299 -1.06947,0.79546 -2.16472,-0.98711 z m 47.80313,1.25978 c -0.68905,-0.29618 -0.71211,-0.44398 -0.51866,-3.32356 0.2048,-3.04847 0.41793,-3.54307 1.53121,-3.55312 0.57428,-0.005 0.60295,0.21933 0.4237,3.31759 -0.10573,1.82772 -0.30991,3.44597 -0.4537,3.59611 -0.1438,0.15012 -0.58595,0.1335 -0.98255,-0.0369 z m 4.24356,-3.31146 c -0.83188,-0.45089 -1.63249,-2.34968 -2.04188,-4.84273 -0.31843,-1.93906 -0.24832,-2.14866 0.84172,-2.51663 0.62151,-0.2098 0.72368,-0.0622 0.91515,1.32194 0.3211,2.32119 0.8217,3.9133 1.25006,3.97561 0.20929,0.0305 0.58923,0.072 0.8443,0.0923 0.67756,0.054 1.0619,1.92703 0.44939,2.19023 -0.67981,0.29212 -1.45182,0.21669 -2.25874,-0.22067 z m 2.65983,-3.29824 c -0.0692,-0.24985 -0.21715,-0.94486 -0.32887,-1.54449 -0.11174,-0.59962 -0.32054,-1.68828 -0.46404,-2.41923 -0.54331,-2.76741 1.14824,-4.71667 2.59578,-2.99127 0.40048,0.47735 1.04343,0.86791 1.42875,0.86791 0.53036,0 0.95106,0.54381 1.73126,2.23777 0.56686,1.23078 0.99255,2.28045 0.94597,2.33263 -0.0466,0.0522 -0.45823,0.19981 -0.91479,0.32812 -0.71253,0.20025 -0.91927,0.0475 -1.45974,-1.07864 -0.3463,-0.72155 -1.04748,-1.54568 -1.55817,-1.83137 -0.89677,-0.5017 -0.92092,-0.49177 -0.70614,0.29051 0.12229,0.44547 0.30315,1.58673 0.40188,2.53614 0.17437,1.67685 0.15484,1.72618 -0.68331,1.72618 -0.47455,0 -0.91941,-0.20442 -0.98858,-0.45426 z m 7.82242,-0.6831 c -0.81376,-1.39298 -1.43218,-3.28375 -1.67836,-5.13143 l -0.23001,-1.72618 h 0.98193 c 0.89727,0 1.00139,0.12897 1.20759,1.49573 0.12412,0.82265 0.51675,2.23256 0.87252,3.13317 0.64632,1.63614 0.64632,1.638 -0.002,2.36378 -0.64852,0.72619 -0.64876,0.72616 -1.15185,-0.13502 z m -25.49942,-3.13267 -0.69471,-0.63597 0.63919,-1.39662 c 0.35155,-0.76815 0.73785,-2.28083 0.85842,-3.36153 0.21093,-1.89039 0.25645,-1.96489 1.20086,-1.96489 h 0.98161 l -0.17587,1.90789 c -0.15463,1.67758 -1.58214,6.08708 -1.9706,6.08708 -0.0793,0 -0.4568,-0.28619 -0.8389,-0.63596 z m -55.801506,-5.93323 c -1.936599,-0.42625 -3.311165,-1.70071 -5.383807,-4.99169 -2.343392,-3.72089 -4.325254,-7.78711 -6.055423,-12.42404 -1.401786,-3.75686 -1.42378,-3.88032 -1.424155,-7.99497 -3.04e-4,-3.51197 0.111133,-4.44935 0.698138,-5.87134 0.938607,-2.27381 3.100327,-4.56319 5.467637,-5.79053 1.771431,-0.91841 1.983828,-0.95624 2.352874,-0.4189 0.696142,1.01355 0.465601,1.37623 -1.565982,2.46354 -2.324823,1.24426 -4.331211,3.53126 -4.817124,5.49083 -0.567504,2.28859 -0.423214,6.29906 0.319529,8.88154 0.368772,1.28222 1.333911,3.8031 2.144751,5.60197 3.955185,8.7747 6.78921,12.90098 8.860718,12.90098 0.904629,0 0.980861,0.0989 0.980861,1.27193 0,0.69956 -0.03657,1.25402 -0.08104,1.23211 -0.04468,-0.0219 -0.718217,-0.18004 -1.496872,-0.35143 z m 80.115336,-0.93099 c -0.80323,-0.3084 -2.62874,-1.15915 -4.05668,-1.89054 -2.43592,-1.24768 -2.79674,-1.32992 -5.84162,-1.33155 -2.00156,-0.001 -3.51882,-0.17625 -3.9589,-0.45708 -0.96433,-0.61536 -1.72045,-1.88667 -1.72045,-2.89272 0,-1.27233 1.62321,-1.14985 2.28422,0.17236 0.49431,0.98877 0.53316,0.99885 3.89441,1.0103 3.34259,0.011 3.44534,0.0375 6.64047,1.68988 1.78494,0.92309 3.57393,1.78746 3.97554,1.92082 0.54203,0.18 0.73022,0.51714 0.73022,1.30822 0,1.2209 0.005,1.21977 -1.94721,0.47031 z M 96.925995,151.7213 c -3.710613,-3.26766 -6.570876,-7.52239 -8.066867,-11.99974 -0.806514,-2.41384 -0.870995,-3.7941 -0.253548,-5.42766 1.0855,-2.87189 2.913591,-3.36899 6.582152,-1.78986 1.402293,0.6036 2.914695,1.15366 3.360936,1.22236 0.609333,0.0938 0.836906,0.37373 0.91402,1.12428 0.09077,0.8832 -0.0041,0.99791 -0.811327,0.98687 -0.502719,-0.007 -2.009336,-0.49688 -3.34804,-1.08889 -1.338703,-0.59201 -2.827339,-1.07699 -3.308074,-1.07773 -1.935829,-0.003 -2.460886,3.13959 -1.079655,6.46184 1.227328,2.95204 4.241464,7.18268 6.705947,9.41239 2.284695,2.06706 2.364625,2.19213 2.02827,3.17363 -0.302995,0.88418 -0.789302,0.7061 -2.723814,-0.99749 z m 86.001595,-0.58364 c 0,-0.75786 0.19367,-1.13456 0.67039,-1.30399 1.45088,-0.51565 2.8572,-2.33577 3.07786,-3.9835 0.30426,-2.272 -0.31252,-3.96002 -2.35676,-6.44999 -1.99013,-2.42406 -2.45151,-3.45303 -3.0304,-6.75856 -0.33965,-1.93937 -0.64965,-2.60236 -1.97757,-4.22936 -0.86613,-1.06118 -3.03995,-3.03218 -4.83071,-4.37996 -1.79075,-1.3478 -3.53758,-2.85147 -3.88181,-3.34153 -1.28518,-1.82953 -2.03069,-4.82936 -2.07282,-8.34076 -0.022,-1.83196 0.0524,-3.43438 0.16515,-3.5609 0.11285,-0.1265 0.55094,-0.13282 0.97361,-0.014 0.73696,0.20713 0.76922,0.35327 0.78626,3.56091 0.011,2.08503 0.19443,3.79281 0.4868,4.53401 l 0.46903,1.18909 1.13587,-1.71756 c 0.62474,-0.94467 1.61479,-2.02909 2.20012,-2.40984 0.91642,-0.5961 1.19969,-0.62945 2.03914,-0.24008 0.53619,0.24868 1.34943,0.96156 1.8072,1.58415 0.70151,0.95406 0.80746,1.00716 0.67415,0.33778 -0.0915,-0.45951 0.0201,-0.87083 0.26498,-0.97604 0.32636,-0.14023 0.24567,-0.66527 -0.35269,-2.29477 -1.08445,-2.95326 -1.03746,-5.04546 0.15809,-7.03882 0.70281,-1.17183 0.87138,-1.7461 0.64908,-2.21124 -0.16517,-0.34561 -0.3003,-1.02975 -0.3003,-1.52033 0,-0.73167 -0.20414,-0.93485 -1.13589,-1.13059 -0.98714,-0.20737 -1.13586,-0.37621 -1.13586,-1.289522 0,-0.998074 0.057,-1.04053 1.13586,-0.844503 l 1.13589,0.206412 v -1.8242 c 0,-2.065333 -1.52302,-7.311194 -4.61508,-15.89618 C 170.82264,69.008948 168.39949,65.208321 161.33934,59.26206 156.85248,55.4831 149.28965,52.200058 137.69197,48.996672 127.62361,46.215698 125.99332,45.971778 118.91319,46.187029 l -6.08501,0.184999 v -1.016474 -1.016473 l 3.16421,-0.266051 c 4.0281,-0.338684 10.43947,-0.0057 14.19839,0.73718 1.60644,0.317531 5.62255,1.401373 8.92468,2.408536 15.6995,4.788408 21.20859,7.58844 26.99236,13.71906 5.31216,5.630714 7.38931,9.361313 11.09492,19.9267 3.38596,9.653989 4.12033,12.204762 4.33351,15.052199 0.10303,1.376271 0.31221,2.502316 0.4648,2.502316 0.15262,0 0.27747,0.408838 0.27747,0.908522 0,0.499682 -0.14603,0.908517 -0.32453,0.908517 -0.51665,0 -0.37627,1.78854 0.2307,2.93911 0.55458,1.05129 0.55378,1.05417 -0.69334,2.4843 -1.52575,1.74967 -1.6222,3.11916 -0.47408,6.73163 l 0.77445,2.43679 -0.86034,0.78991 c -2.62291,2.40815 -2.92256,2.50416 -3.69513,1.18384 -0.28256,-0.48291 -0.71473,-0.96437 -0.96037,-1.06993 -0.65738,-0.28247 -2.03207,1.07746 -2.80572,2.7756 l -0.67692,1.48577 1.09163,1.00946 1.09163,1.00944 0.59501,-0.89425 c 0.32726,-0.49183 0.7991,-0.89423 1.04854,-0.89423 0.24946,0 0.54519,-0.40885 0.65718,-0.90853 0.14621,-0.65226 0.42256,-0.90852 0.97979,-0.90852 0.64862,0 0.77616,0.18186 0.77616,1.10674 0,1.60471 -1.36195,3.04 -2.6178,2.75874 -0.52364,-0.1173 -0.95208,-0.15477 -0.95208,-0.0834 0,0.0714 0.94911,0.82238 2.10913,1.66869 3.3954,2.47717 4.94001,4.87606 5.80115,9.00959 0.5766,2.76781 0.92965,3.47263 2.99983,5.98911 1.95318,2.37423 2.56562,4.22367 2.28384,6.89667 -0.27386,2.59787 -1.11013,4.23224 -2.76786,5.40949 -1.97541,1.40281 -2.9618,1.39464 -2.9618,-0.0246 z m -29.28922,-2.09203 c -1.00774,-0.2949 -0.61566,-1.16187 1.80287,-3.98659 2.16511,-2.52872 2.43262,-2.73193 3.08308,-2.34212 0.39175,0.23477 0.71227,0.55196 0.71227,0.70487 0,0.15292 -0.94926,1.4001 -2.10947,2.77154 -1.16022,1.37145 -2.10948,2.63061 -2.10948,2.79817 0,0.31824 -0.42036,0.33473 -1.37927,0.0541 z m 5.2701,-7.75198 c -0.43304,-0.90605 -0.26603,-1.23289 0.90837,-1.77761 0.5053,-0.23436 1.16229,-0.88782 1.45997,-1.45213 0.42436,-0.80442 0.71808,-0.98816 1.35999,-0.85076 0.98915,0.21175 1.0389,0.90401 0.16386,2.2801 -0.66489,1.04561 -2.53621,2.53473 -3.18529,2.53473 -0.19577,0 -0.51387,-0.33045 -0.7069,-0.73433 z m -6.76785,-8.11008 c -0.27577,-0.37208 -0.16352,-0.69157 0.4788,-1.36277 0.46146,-0.48222 1.11744,-1.31181 1.45774,-1.84356 0.61154,-0.95556 0.59192,-0.9514 -1.68758,0.35822 -1.90388,1.09383 -2.72521,1.34872 -4.70714,1.46078 -2.36803,0.13391 -2.40083,0.12347 -2.40083,-0.75977 0,-0.84447 0.12702,-0.90745 2.22716,-1.10462 1.31058,-0.12307 2.87992,-0.55601 3.81328,-1.05207 1.54125,-0.81916 1.55859,-0.8457 0.61251,-0.93814 -0.53547,-0.0523 -2.18327,-0.27441 -3.66175,-0.4935 -2.52971,-0.37488 -2.67557,-0.44425 -2.47482,-1.17679 0.11739,-0.42814 0.25394,-0.83059 0.30358,-0.89435 0.0496,-0.0637 1.27294,0.0778 2.71845,0.3144 2.83138,0.46358 5.56395,0.24693 6.9356,-0.54992 0.92516,-0.53748 2.17997,-0.36368 2.18745,0.30297 0.0101,0.81973 -2.14282,5.06594 -3.35868,6.62709 -1.30376,1.67405 -1.84477,1.92022 -2.44377,1.11203 z M 97.949688,131.58 c -0.791319,-0.5739 -2.061924,-2.10679 -2.984515,-3.6006 -1.877001,-3.03909 -3.293223,-4.48522 -4.392501,-4.48522 -0.657453,0 -0.786435,-0.1788 -0.786435,-1.09022 0,-1.29046 0.581048,-1.40562 2.577823,-0.51097 1.23372,0.55277 2.279539,1.80231 5.826877,6.96212 0.830929,1.20864 1.338977,1.5947 2.332683,1.77264 1.06338,0.19041 1.27039,0.36795 1.27039,1.08955 0,0.75591 -0.15186,0.86207 -1.23317,0.86207 -0.794884,0 -1.722945,-0.3552 -2.611152,-0.99937 z m 27.693602,-1.41917 c -0.77598,-0.86894 -1.13187,-2.12347 -1.13187,-3.99002 0,-1.48972 0.0657,-1.62651 0.7302,-1.52083 0.57693,0.0917 0.8129,0.49134 1.12414,1.9036 0.45705,2.07386 0.86724,2.47778 1.95339,1.92363 0.90964,-0.46411 1.55942,-1.71976 1.87991,-3.63282 0.16621,-0.99201 0.38882,-1.35021 0.83916,-1.35021 1.24012,0 0.51264,4.35304 -1.03814,6.21202 -0.7217,0.86512 -1.1468,1.05615 -2.35034,1.05615 -0.93454,0 -1.66479,-0.21893 -2.00645,-0.60152 z m -25.39803,-6.29707 c -1.115128,-0.56677 -1.686756,-1.24663 -2.92081,-3.47391 -4.589632,-8.28359 -4.768274,-8.52041 -7.119669,-9.43832 -0.03748,-0.0147 0.0159,-0.38746 0.118973,-0.82844 0.263334,-1.12762 1.360028,-1.02635 2.962592,0.27361 1.456867,1.18176 3.323352,4.05826 4.887764,7.53272 1.15301,2.56077 2.30831,4.0023 3.46907,4.32853 0.61946,0.17409 0.79989,0.46184 0.79989,1.27563 0,1.2373 -0.31878,1.28521 -2.19781,0.33018 z M 152.1,121.40145 c -1.26451,-0.71075 -2.29289,-2.40685 -1.78335,-2.94129 0.17588,-0.18448 0.63142,-0.44054 1.01232,-0.56906 0.55322,-0.18665 0.73399,-0.0487 0.89865,0.68597 0.15192,0.67781 0.41995,0.91962 1.0193,0.91962 0.58018,0 0.90648,0.27477 1.13877,0.95893 0.17907,0.5274 0.28499,0.9977 0.23537,1.04508 -0.48484,0.46303 -1.59865,0.41919 -2.52106,-0.0993 z m 4.04408,-2.43892 c -0.88222,-2.08826 -1.7555,-2.73651 -3.6864,-2.73651 -2.0433,0 -4.23312,0.95434 -6.28596,2.73948 l -1.94528,1.69159 -0.68942,-0.78878 -0.68941,-0.78879 1.29813,-1.2921 c 2.86211,-2.84877 7.85414,-4.48422 10.51602,-3.44513 0.95892,0.37433 0.96736,0.36654 0.64491,-0.59467 -1.47077,-4.38432 -5.07761,-6.09187 -7.94802,-3.7627 -1.35899,1.10273 -2.62752,2.80476 -3.49317,4.68688 -0.49205,1.06985 -0.6087,1.13563 -1.34624,0.75933 -0.44413,-0.22661 -0.8075,-0.5919 -0.8075,-0.81179 0,-0.2199 0.64611,-1.47829 1.43578,-2.79642 2.87947,-4.80644 7.23396,-6.38382 10.61686,-3.8459 2.16636,1.62525 4.18344,6.2113 4.68505,10.65196 0.20284,1.7958 0.1812,1.86397 -0.64817,2.04151 -0.77024,0.16487 -0.93978,-0.009 -1.65718,-1.70796 z m -30.23539,-5.17254 c -1.28419,-1.45433 -2.85055,-2.91957 -3.48081,-3.25611 -0.98704,-0.52707 -1.11818,-0.74171 -0.94594,-1.54822 0.26886,-1.2589 0.20472,-1.23468 1.57367,-0.59418 1.06154,0.49668 6.66514,6.16759 6.63816,6.71794 -0.006,0.1144 -0.3342,0.45933 -0.7302,0.76644 -0.69257,0.53706 -0.80898,0.45758 -3.05488,-2.08587 z m 8.06934,-0.40951 c -0.91946,-1.02959 -1.60047,-2.42486 -2.61625,-5.36026 -0.75527,-2.1826 -1.66882,-4.32089 -2.03013,-4.75174 -0.53677,-0.64013 -0.59037,-0.92256 -0.29313,-1.54449 0.89454,-1.871667 2.09022,-0.38435 4.06253,5.05344 0.83371,2.29854 1.92783,4.66979 2.43142,5.26941 0.76814,0.91465 0.86107,1.22189 0.57703,1.90789 -0.45759,1.1051 -0.68694,1.04331 -2.13147,-0.57425 z m -4.18169,-0.87939 c -0.3684,-0.4497 -1.06831,-1.71708 -1.55531,-2.81639 -1.17078,-2.64273 -2.93228,-5.0322 -3.91285,-5.3078 -0.60951,-0.1713 -0.79037,-0.46258 -0.79037,-1.27295 0,-1.258 0.49457,-1.3394 2.20354,-0.36269 1.53518,0.87738 1.95927,1.43477 3.62391,4.76297 0.74976,1.49907 1.65474,3.07618 2.01107,3.50471 0.56061,0.6742 0.59038,0.88222 0.22101,1.54447 -0.54538,0.97792 -0.96706,0.96567 -1.801,-0.0523 z m -19.6404,-0.52194 c -0.51446,-0.1509 -0.52217,-0.27384 -0.0898,-1.43255 1.05269,-2.82126 2.50425,-4.25782 4.92187,-4.87101 0.95282,-0.24167 1.03376,-0.18485 1.16521,0.81814 0.1007,0.76801 -0.007,1.12549 -0.37487,1.24364 -1.61994,0.5204 -2.84631,1.54204 -3.53723,2.94671 -0.7433,1.51115 -0.93744,1.63174 -2.08516,1.29507 z m 60.99414,-0.70412 c -0.31498,-0.3527 0.97546,-2.93027 1.78482,-3.56507 0.95342,-0.74781 2.68175,-0.72345 3.8576,0.0544 1.09585,0.72485 1.17577,1.20798 0.34002,2.05494 -0.5379,0.54508 -0.64663,0.55113 -1.01335,0.0564 -0.59067,-0.79697 -1.82217,-0.68235 -2.59043,0.24105 -0.36394,0.43744 -0.66171,0.92806 -0.66171,1.09024 0,0.34472 -1.41963,0.40109 -1.71695,0.0681 z m -12.36815,-1.49948 c -0.96363,-2.28442 -3.79799,-6.19169 -5.69796,-7.85487 -2.33844,-2.046999 -3.02837,-2.435153 -4.8399,-2.722958 -1.38574,-0.220146 -1.50963,-0.32537 -1.59987,-1.358882 l -0.0978,-1.120262 1.77907,0.270335 c 3.88951,0.591048 7.98039,4.238397 11.21773,10.001507 1.68409,2.99801 1.7383,3.16915 1.15498,3.64677 -0.94305,0.77218 -1.29351,0.6146 -1.91624,-0.86164 z m -44.85091,-6.15633 c -1.03195,-0.22527 -0.66849,-1.92951 0.41151,-1.92951 0.95258,0 2.58683,-0.89715 2.79954,-1.53685 0.10807,-0.324793 0.38162,-0.213113 0.9218,0.37625 l 0.76818,0.83814 -1.05985,1.06975 c -0.58291,0.58835 -1.3377,1.06976 -1.67726,1.06976 -0.33957,0 -0.81191,0.0587 -1.04961,0.13062 -0.23771,0.0719 -0.73916,0.0637 -1.11431,-0.0183 z m 49.37589,-0.459 c -0.57648,-0.71331 -0.5539,-0.7755 0.99639,-2.744 1.82412,-2.316193 3.69572,-5.265023 3.69572,-5.822888 0,-0.428823 -3.2244,-2.715635 -3.82906,-2.715635 -0.21443,0 -0.38989,0.332321 -0.38989,0.738481 0,0.406175 -0.2109,1.303709 -0.46867,1.994543 -0.41038,1.099811 -0.56176,1.216683 -1.21701,0.939577 -0.7779,-0.328997 -0.8425,-0.76841 -0.41972,-2.854936 0.29344,-1.448064 -0.20153,-1.546545 -2.15736,-0.429236 -1.24872,0.71336 -1.34774,0.719774 -1.93428,0.125402 -0.33999,-0.344545 -0.61819,-0.73454 -0.61819,-0.866631 0,-0.429854 2.40299,-1.759178 3.64826,-2.018194 1.10817,-0.230503 1.19765,-0.3364 1.02409,-1.212082 -0.64099,-3.234326 -2.76689,-6.223592 -4.42894,-6.227562 -0.41882,-0.001 -0.56794,-0.297941 -0.56794,-1.130976 0,-1.050103 0.0628,-1.112185 0.89247,-0.881861 1.4117,0.391889 3.37307,1.741637 4.0745,2.803938 0.35379,0.535792 1.02683,2.240373 1.49566,3.787934 0.7406,2.444682 0.97927,2.859689 1.8195,3.163921 0.53192,0.192581 1.60525,0.826043 2.38522,1.407697 0.77996,0.58164 1.51017,0.954465 1.62267,0.828488 0.11248,-0.125952 0.20455,-1.483172 0.20455,-3.015995 0,-2.304365 -0.1533,-3.13288 -0.88537,-4.784869 l -0.88536,-1.997935 0.71739,-0.610374 c 0.93733,-0.797515 1.3241,-0.418357 2.232,2.18796 0.68125,1.955699 0.93329,6.098247 0.55457,9.115051 -0.0862,0.68692 0.21069,1.155617 1.34985,2.130823 1.73676,1.486782 1.76266,1.54127 1.16651,2.454201 -0.45356,0.694597 -0.5022,0.682524 -1.99357,-0.494602 -0.84077,-0.663611 -1.63052,-1.072381 -1.755,-0.908356 -0.12448,0.164011 -0.89507,1.361176 -1.71241,2.660365 -0.81735,1.299181 -2.05774,2.979871 -2.75642,3.734891 -1.26241,1.36419 -1.27398,1.36818 -1.86016,0.64289 z m -3.42125,-4.199593 c -1.0907,-0.245447 -2.41607,-0.287572 -3.40761,-0.108232 -1.45691,0.263397 -1.68406,0.210353 -2.22367,-0.519339 -0.59459,-0.804066 -0.59114,-0.817417 0.32454,-1.255456 1.14976,-0.550022 5.05135,-0.60135 6.70166,-0.08818 1.06171,0.330151 1.20294,0.493667 1.01827,1.179048 -0.31812,1.180711 -0.46811,1.229951 -2.41319,0.792227 z m -54.14721,-3.207517 -0.69861,-0.832704 0.89223,-0.945798 c 1.31743,-1.396517 3.91948,-2.823731 5.14816,-2.823731 1.13394,0 3.91221,0.924647 4.56944,1.520778 0.28972,0.262794 0.29705,0.573701 0.0291,1.232381 -0.37134,0.912629 -0.87386,1.113244 -1.40635,0.561409 -0.16957,-0.175727 -0.84645,-0.511962 -1.50419,-0.74719 -1.62654,-0.581709 -3.51585,0.01951 -5.10113,1.623283 l -1.22996,1.24429 -0.69861,-0.832718 z M 74.695392,94.858104 c -1.280176,-0.142721 -4.056677,-1.152348 -4.056677,-1.475122 0,-0.139343 0.222061,-0.608355 0.493468,-1.042261 0.476014,-0.761007 0.542041,-0.76907 1.866079,-0.227769 1.879277,0.768287 4.278971,0.757697 6.360463,-0.02802 l 1.742509,-0.657815 -1.302781,-1.319174 c -1.64675,-1.667468 -1.867511,-2.398423 -1.01328,-3.354976 0.632036,-0.707742 0.971593,-0.741037 6.402193,-0.627721 7.148156,0.149163 7.896177,-0.0625 11.31125,-3.201254 4.280364,-3.933994 5.767824,-4.943441 7.570114,-5.137353 1.57172,-0.16912 1.6197,-0.146004 1.6197,0.78047 0,0.727479 -0.16217,0.954767 -0.68118,0.954767 -1.1371,0 -2.58268,0.960537 -5.762602,3.829072 -1.669902,1.506383 -3.745675,3.141464 -4.612851,3.633524 -2.190512,1.242985 -5.55939,1.717038 -10.119238,1.423972 -2.0973,-0.134741 -3.813286,-0.136251 -3.813286,-0.0027 0,0.133093 0.786821,0.645317 1.748465,1.13831 1.320539,0.676976 1.787284,1.123779 1.907098,1.825574 0.110879,0.649244 -3.34e-4,0.98335 -0.369198,1.108862 -0.290291,0.09876 -1.477077,0.585527 -2.637289,1.081625 -2.199015,0.940264 -4.986358,1.484284 -6.652957,1.298462 z M 85.084774,83.948081 c -0.09168,-0.102604 -0.166547,-0.564966 -0.166547,-1.027523 0,-0.574842 0.231109,-0.899854 0.730201,-1.02689 0.401606,-0.102188 1.436433,-0.354476 2.299598,-0.560571 2.707758,-0.646497 5.647384,-2.607733 8.408418,-5.609868 1.696181,-1.844294 2.63728,-3.66069 2.974384,-5.740861 0.184346,-1.137484 0.352544,-1.36278 1.017472,-1.36278 0.7213,0 0.79664,0.146577 0.79664,1.549866 0,3.90908 -4.246845,9.107759 -9.898301,12.116749 -2.088609,1.112034 -5.766945,2.104107 -6.161865,1.661878 z m 1.131584,-5.879886 c 0,-0.931693 0.122661,-1.090223 0.84343,-1.090223 2.328753,0 5.053581,-2.887778 7.273805,-7.708803 0.762852,-1.656453 1.43853,-3.07918 1.501522,-3.161615 0.06301,-0.08243 0.478791,0.03598 0.923989,0.263106 l 0.809462,0.412996 -1.746398,3.734374 c -2.106904,4.505245 -4.2869,7.185978 -6.54405,8.047183 -2.405634,0.917876 -3.06176,0.81136 -3.06176,-0.497018 z M 102.6033,72.614549 c -0.48129,-0.595517 -0.50519,-0.80396 -0.14751,-1.286547 0.615,-0.829796 1.89783,-1.495253 3.43265,-1.780655 1.20166,-0.223452 1.35495,-0.16667 1.52588,0.565204 0.25584,1.09554 0.10548,1.281275 -1.23431,1.524736 -0.63075,0.114619 -1.56432,0.541289 -2.0746,0.94816 -0.92022,0.733745 -0.93243,0.733981 -1.50211,0.0291 z m 5.6814,-0.694567 c 0,-0.183528 -0.0814,-0.570898 -0.18065,-0.860826 -0.12521,-0.365393 0.24821,-0.718351 1.21701,-1.150291 0.7687,-0.34273 1.8705,-1.025142 2.44846,-1.516465 0.85018,-0.722767 1.17547,-0.818601 1.7038,-0.501982 1.01277,0.606945 0.78865,1.18649 -0.95245,2.462847 -2.32348,1.703275 -4.23617,2.41067 -4.23617,1.566717 z M 93.675917,63.189135 c -1.0599,-0.841195 -3.359234,-1.451241 -6.488281,-1.721437 -2.320021,-0.200341 -2.548019,-0.290462 -2.67922,-1.059051 -0.117262,-0.687034 0.02857,-0.882363 0.800365,-1.072199 1.139243,-0.28019 4.312611,0.09824 6.736541,0.803334 1.866121,0.542841 4.048984,2.114144 3.732809,2.687013 -0.466989,0.846104 -1.309669,0.991347 -2.102214,0.36234 z m 25.561803,0.103456 c -1.2922,-0.600187 -1.41016,-0.857941 -0.89037,-1.945522 0.30755,-0.643505 0.39754,-0.650151 1.54154,-0.11385 1.26072,0.591036 3.83878,0.795046 6.08294,0.481374 1.20725,-0.168744 1.30503,-0.114935 1.39658,0.768621 0.084,0.810467 -0.0531,0.984014 -0.93304,1.181076 -1.88643,0.42248 -5.93828,0.213238 -7.19765,-0.371696 z M 104.84413,61.58339 c -0.5351,-0.627257 -1.74352,-1.447563 -2.68535,-1.822902 -1.59214,-0.634491 -1.69744,-0.749326 -1.49903,-1.634589 0.11738,-0.52369 0.25468,-0.998362 0.3051,-1.054832 0.26256,-0.294 4.38274,2.009449 5.29151,2.958293 1.24918,1.30427 1.31505,1.799421 0.30772,2.313367 -0.6411,0.327084 -0.88498,0.219406 -1.71995,-0.759337 z m -9.054005,-2.308993 c -1.427953,-0.935276 -3.764598,-2.146034 -5.192542,-2.69057 -2.295119,-0.87522 -2.586069,-1.085611 -2.508155,-1.81371 0.04842,-0.453001 0.148778,-0.891552 0.222913,-0.974553 0.287971,-0.322481 6.297938,2.188088 8.47604,3.540728 2.770344,1.720446 3.308249,2.331681 2.733895,3.106629 -0.588606,0.794166 -0.870196,0.706 -3.732151,-1.168524 z m 17.229395,-1.984239 c -0.50424,-0.806133 -0.48089,-0.850676 0.86219,-1.644261 4.51822,-2.669684 7.90079,-2.874425 16.53617,-1.000902 3.26648,0.708694 7.25342,1.359106 8.85985,1.445364 2.83569,0.152265 2.9238,0.183558 3.0235,1.073624 l 0.10266,0.916787 h -3.22609 c -2.4288,0 -4.61971,-0.320471 -8.86511,-1.296731 -4.79725,-1.103156 -6.14769,-1.279464 -9.04665,-1.181075 -3.38308,0.114825 -4.0764,0.335179 -7.51514,2.388513 -0.11726,0.07 -0.44635,-0.245601 -0.7314,-0.701319 z m 30.63943,-1.63544 c -0.26774,-0.103519 -1.02046,-0.864627 -1.67271,-1.691333 l -1.18589,-1.503109 -1.57265,0.508418 c -0.86495,0.279628 -2.17498,0.577869 -2.91114,0.662761 -1.25842,0.145108 -1.41304,0.05452 -2.58387,-1.513952 -0.68495,-0.917563 -1.3554,-1.668297 -1.4899,-1.668297 -0.13449,0 -0.93042,0.487075 -1.76871,1.082388 -1.74131,1.236575 -1.6805,1.241935 -6.48249,-0.571291 -1.80312,-0.680852 -3.51283,-1.237914 -3.79938,-1.237914 -0.28655,0 -1.73208,0.714533 -3.21231,1.587846 -1.48022,0.873317 -3.16596,1.70398 -3.74606,1.845916 -1.005,0.2459 -1.05473,0.207157 -1.05473,-0.821636 0,-0.844294 0.17429,-1.128684 0.79937,-1.304365 0.43966,-0.123561 1.71752,-0.829475 2.83968,-1.568694 2.97311,-1.958521 4.87534,-2.017953 9.31336,-0.290977 l 3.37865,1.314744 1.59207,-1.108234 c 2.38865,-1.662732 3.26051,-1.483212 4.76606,0.981365 0.81796,1.339004 1.65636,1.49196 3.48589,0.635964 2.35436,-1.101551 4.21079,-0.362558 5.50526,2.191493 0.32008,0.631535 0.48252,0.665972 1.38033,0.292629 0.90641,-0.376924 1.07062,-0.338323 1.50329,0.353417 0.26717,0.427106 0.48574,0.884286 0.48574,1.015961 0,0.199137 -2.66777,1.114644 -2.98337,1.023815 -0.0548,-0.01576 -0.31875,-0.113384 -0.58649,-0.216915 z m -43.368,-2.840645 c -1.094423,-0.266534 -2.44817,-0.749997 -3.008329,-1.074357 -1.004253,-0.581529 -1.010443,-0.601687 -0.444134,-1.445938 0.518847,-0.773506 0.653999,-0.810207 1.399426,-0.380052 1.007038,0.581115 4.041107,1.200002 6.558037,1.337704 1.79826,0.09838 1.86608,0.138487 1.86608,1.103561 0,0.996966 -0.0101,1.00134 -2.19062,0.97258 -1.20482,-0.01588 -3.08603,-0.246963 -4.18046,-0.513498 z"
       id="path3764"
       inkscape:connector-curvature="0" />
  </g>
</svg>
